# xmcd
#
# Track frame offsets:
# 150
# 19866
# 32170
# 49313
# 69150
# 81707
# 100857
# 122732
# 142401
# 155228
# 176666
#
# Disc length: 2648 seconds
#
#
# Revision: 0
# Processed by: cddbd v1.5.2PL0 Copyright (c) Steve Scherf et al.
# Submitted via: FreeRIP 2.945 
#
DISCID=a30a560b
DTITLE=Bill Anderson - Ladies Choice
DYEAR=1900
DGENRE=Country
TTITLE0=Trust Me
TTITLE1=One More Sexy Lady
TTITLE2=This Is A Love Song
TTITLE3=Remembering The Good
TTITLE4=Ladies Get Lonesome Too
TTITLE5=I Can't Wait Any Longer
TTITLE6=Kiss You All Over
TTITLE7=Married Lady
TTITLE8=Stay With Me
TTITLE9=Three Times A Lady
TTITLE10=Double S
EXTD=
EXTT0=
EXTT1=
EXTT2=
EXTT3=
EXTT4=
EXTT5=
EXTT6=
EXTT7=
EXTT8=
EXTT9=
EXTT10=
PLAYORDER=
